<?xml version="1.0" encoding="utf-8"?>
<svg width="170" height="170" viewBox="0 0 170 170" fill="none" xmlns="http://www.w3.org/2000/svg">
  <g>
    <path d="M1.2 37.2L1.2 32L23.2 32Q24.72 32 25.48 31.14Q26.24 30.28 26.24 28.76Q26.24 27.2 25.48 26.32Q24.72 25.44 23.2 25.44L4.96 25.44L4.96 20.28L23.16 20.28Q26.24 20.28 26.24 17.04Q26.24 13.84 23.16 13.84L1.2 13.84L1.2 8.64L24.36 8.64Q28.52 8.64 30.82 10.7Q33.12 12.76 33.12 16.44Q33.12 18.44 32.36 20.22Q31.6 22 29.84 22.84Q31.6 23.72 32.36 25.42Q33.12 27.12 33.12 29.16Q33.12 32.8 30.82 35Q28.52 37.2 24.36 37.2L1.2 37.2ZM49.04 37.24C44.88 37.24 41.6533 35.98 39.36 33.46Q35.92 29.68 35.92 22.88Q35.92 15.48 40.22 12.04Q44.52 8.6 52.24 8.6L68.36 8.6L68.36 13.8L52.68 13.8Q48.32 13.8 45.78 15.26Q43.24 16.72 42.64 20.36L61.32 20.36Q65.76 20.36 68.32 22.58Q70.88 24.8 70.88 28.72Q70.88 32.76 68.32 35C66.6133 36.4933 64.28 37.24 61.32 37.24L49.04 37.24ZM49.48 32.04L60.08 32.04Q62.28 32.04 63.48 31.22Q64.68 30.4 64.68 28.76Q64.68 27.16 63.48 26.36Q62.28 25.56 60.08 25.56L42.64 25.56Q43.56 32.04 49.48 32.04ZM90 37.4Q82.28 37.4 77.98 33.74Q73.68 30.08 73.68 22.88Q73.68 15.72 77.98 12.06Q82.28 8.40001 90 8.4L95.2 8.4Q102.96 8.4 107.24 12.06Q111.52 15.72 111.52 22.88Q111.52 30.08 107.24 33.74Q102.96 37.4 95.2 37.4L90 37.4ZM80.2 22.88Q80.2 27.24 82.32 29.52L98 13.88Q96.56 13.6 94.76 13.6L90.44 13.6Q85.4 13.6 82.8 15.8Q80.2 18 80.2 22.88ZM90.44 32.2L94.76 32.2Q99.8 32.2 102.4 29.98Q105 27.76 105 22.88Q105 18.52 102.84 16.24L87.12 31.92Q88.6 32.2 90.44 32.2Z" fill="#FFFFFF" transform="translate(28 61)" />
    <path d="M106.013 20.3282C106.013 20.3282 111.266 4.16019 111.266 4.16019C94.1947 -1.38673 75.8052 -1.38673 58.7335 4.16022C41.6618 9.70715 26.7844 20.5162 16.2335 35.0383C5.68265 49.5603 0 67.0498 0 85C0 102.95 5.68269 120.44 16.2336 134.962C26.7845 149.484 41.6619 160.293 58.7336 165.84C75.8053 171.387 94.1948 171.387 111.266 165.84C128.338 160.293 143.216 149.484 153.766 134.962C164.317 120.44 170 102.95 170 85C170 85 153 85 153 85C153 99.3602 148.454 113.352 140.013 124.969C131.572 136.587 119.671 145.234 106.013 149.672C92.3558 154.109 77.6442 154.109 63.9869 149.672C50.3295 145.234 38.4276 136.587 29.9869 124.969C21.5462 113.352 17 99.3602 17 85C17 70.6398 21.5461 56.6483 29.9868 45.0306C38.4275 33.413 50.3295 24.7657 63.9868 20.3282C77.6442 15.8906 92.3558 15.8906 106.013 20.3282Z" fill="#FFFFFF" fill-rule="evenodd" />
    <path d="M0 11C0 4.92487 4.92487 0 11 0C17.0751 0 22 4.92487 22 11C22 17.0751 17.0751 22 11 22C4.92487 22 0 17.0751 0 11Z" fill="#FFFFFF" fill-rule="evenodd" transform="translate(142 26)" />
  </g>
</svg>