<?xml version="1.0" encoding="utf-8"?>
<svg width="344.568" height="467.853" viewBox="0 0 344.568 467.853" fill="none" xmlns="http://www.w3.org/2000/svg">
  <g>
    <path d="M7.90591 0L160.842 0C165.209 0 168.748 3.53903 168.748 7.90591L168.748 7.90591C168.748 12.2728 165.209 15.8118 160.842 15.8119L7.90591 15.8119C3.53901 15.8118 -7.62939e-06 12.2728 -1.52588e-05 7.90591L-1.52588e-05 7.90591C0 3.539 3.539 3.05176e-05 7.90591 0L7.90591 0Z" fill="#FFFFFF" transform="matrix(0.902 -0.432 0.432 0.902 88.057 380.456)" />
    <path d="M7.49801 3.05176e-05L145.16 3.05176e-05C149.302 0 152.658 3.35641 152.658 7.49805L152.658 7.49805C152.658 11.6396 149.302 14.9961 145.16 14.996L7.49802 14.9961C3.35641 14.9961 0 11.6396 -7.62939e-06 7.49805L-7.62939e-06 7.49805C0 3.35641 3.35641 0 7.49801 3.05176e-05L7.49801 3.05176e-05Z" fill="#FFFFFF" transform="matrix(0.902 -0.432 0.432 0.902 99.34 413.058)" />
    <path d="M7.49802 3.05176e-05L117.203 0C121.344 0 124.701 3.35645 124.701 7.49805L124.701 7.49805C124.701 11.6396 121.344 14.9961 117.203 14.9961L7.49802 14.996C3.35641 14.9961 7.62939e-06 11.6396 0 7.49805L0 7.49805C7.62939e-06 3.35641 3.35641 0 7.49802 3.05176e-05L7.49802 3.05176e-05Z" fill="#FFFFFF" transform="matrix(0.902 -0.432 0.432 0.902 115.342 442.157)" />
    <path d="M32.857 102.604C32.857 102.604 21.4767 114.744 21.4767 114.744C31.3309 123.758 43.7001 129.639 56.9793 131.623C70.2585 133.607 83.8348 131.602 95.9466 125.87C108.058 120.137 118.147 110.941 124.902 99.475C131.658 88.0087 134.769 74.8014 133.832 61.5667C133.832 61.5667 117.124 62.7209 117.124 62.7209C117.826 72.6469 115.493 82.5524 110.426 91.1522C105.359 99.7519 97.7933 106.649 88.7094 110.948C79.6255 115.248 69.4433 116.751 59.4839 115.263C49.5245 113.775 40.2476 109.365 32.857 102.604Z" fill="#FFFFFF" fill-rule="evenodd" transform="translate(97.859 335.486)" />
    <path d="M227.432 302.485C227.432 302.485 233.907 316.838 233.907 316.838C267.402 301.729 294.926 275.917 312.154 243.461C329.381 211.005 335.336 173.745 329.081 137.536C322.826 101.328 304.717 68.2237 277.6 43.4279C250.482 18.6321 215.894 3.55013 179.272 0.55248C142.649 -2.44515 106.069 6.8115 75.2805 26.8675C44.4919 46.9236 21.2405 76.6419 9.18097 111.351C-2.87856 146.061 -3.06252 183.794 8.65801 218.619C20.3785 253.445 43.3391 283.388 73.9307 303.744C73.9307 303.744 82.6535 290.634 82.6535 290.634C54.9681 272.213 34.1889 245.114 23.5818 213.597C12.9747 182.08 13.1412 147.932 24.055 116.519C34.9689 85.1072 56.0114 58.2121 83.8751 40.0614C111.739 21.9107 144.844 13.5334 177.987 16.2463C211.131 18.9591 242.433 32.6083 266.974 55.0485C291.515 77.4887 307.904 107.448 313.565 140.216C319.225 172.985 313.836 206.706 298.245 236.079C282.654 265.451 257.745 288.811 227.432 302.485Z" fill="#FFFFFF" fill-rule="evenodd" transform="translate(0 11.286)" />
    <path d="M72.1602 117.256C72.1715 117.322 72.1828 117.389 72.1941 117.456C72.9086 121.689 76.9409 124.588 81.054 123.358C88.0256 121.272 94.6027 117.989 100.483 113.636C108.452 107.737 114.916 100.04 119.35 91.1721C123.784 82.3036 126.062 72.514 125.999 62.5992C125.936 52.6845 123.533 42.9245 118.987 34.1133C114.441 25.302 107.879 17.6882 99.8357 11.891C91.7921 6.09375 82.4938 2.27689 72.697 0.750763C62.9002 -0.775345 52.8815 0.0323639 43.4557 3.10826C36.5007 5.37788 30.0134 8.83513 24.2737 13.3082C20.8874 15.9473 20.9132 20.9132 23.9489 23.9489C23.9968 23.9968 24.0447 24.0447 24.0926 24.0926C27.1283 27.1283 32.0203 27.066 35.5122 24.5685C39.4205 21.7731 43.7449 19.5813 48.3418 18.0812C55.4111 15.7743 62.9251 15.1685 70.2728 16.3131C77.6204 17.4577 84.5941 20.3203 90.6267 24.6682C96.6594 29.0161 101.581 34.7265 104.99 41.335C108.4 47.9434 110.202 55.2633 110.249 62.6994C110.296 70.1355 108.588 77.4777 105.263 84.129C101.937 90.7803 97.0891 96.5529 91.1122 100.977C87.2257 103.854 82.9334 106.108 78.3904 107.673C74.3313 109.072 71.4455 113.022 72.1602 117.256Z" fill="#FFFFFF" fill-rule="evenodd" transform="translate(56.74 163.159)" />
    <path d="M94.8336 17.7384C94.8719 17.6826 94.9101 17.6267 94.9484 17.5708C97.3935 14.0001 96.4981 9.07465 92.6535 7.08772C80.7568 0.939316 67.1512 -1.32166 53.7854 0.747498C40.4195 2.81665 28.1345 9.08569 18.6537 18.5435C15.5899 21.5999 16.2259 26.5654 19.6361 29.2298C19.6895 29.2715 19.7428 29.3132 19.7962 29.3548C23.2065 32.0192 28.0933 31.3558 31.2803 28.428C38.1788 22.0905 46.8421 17.8865 56.214 16.4356C65.5859 14.9848 75.1149 16.3725 83.6068 20.3274C87.5299 22.1545 92.3886 21.3092 94.8336 17.7384Z" fill="#FFFFFF" fill-rule="evenodd" transform="translate(149.024 152.859)" />
    <path d="M24.2899 154.612C24.2353 154.65 24.1806 154.688 24.126 154.726C20.6271 157.162 19.7188 162.01 22.3853 165.336C32.0598 177.404 44.3723 187.1 58.3981 193.639C74.7516 201.264 92.8341 204.317 110.757 202.48C128.679 200.643 145.784 193.984 160.284 183.197C172.727 173.94 182.86 161.936 189.932 148.144C191.874 144.356 190.014 139.801 186.102 138.125C186.041 138.099 185.98 138.073 185.919 138.046C182.006 136.371 177.527 138.213 175.532 141.973C169.585 153.184 161.226 162.95 151.032 170.534C138.779 179.649 124.326 185.276 109.181 186.828C94.0365 188.381 78.7567 185.801 64.9381 179.358C53.448 174.001 43.3188 166.136 35.2621 156.37C32.5493 153.081 27.7887 152.177 24.2899 154.612Z" fill="#FFFFFF" fill-rule="evenodd" transform="translate(55.511 24.122)" />
    <path d="M0 9C0 4.02945 4.02943 0 9 0C13.9706 0 18 4.02945 18 9C18 13.9706 13.9706 18 9 18C4.02943 18 0 13.9706 0 9Z" fill="#FFFFFF" fill-rule="evenodd" transform="translate(84.966 309.629)" />
    <path d="M24.9832 12.1477C24.9832 12.1477 30.7165 3.11344 30.7165 3.11344C26.9689 0.735145 22.5367 -0.328946 18.1178 0.0887632C13.699 0.506468 9.54462 2.38224 6.30905 5.42063C3.07349 8.45903 0.940582 12.4874 0.246246 16.8713C-0.44812 21.2552 0.335571 25.7455 2.47388 29.6351C4.61215 33.5246 7.98355 36.5923 12.057 38.3551C16.1306 40.1179 20.6747 40.4755 24.9738 39.3717C29.2729 38.2678 33.0827 35.7653 35.8031 32.2581C38.5235 28.751 40 24.4386 40 20C40 20 29.3 20 29.3 20C29.3 22.0639 28.6134 24.0692 27.3484 25.7C26.0834 27.3309 24.3119 28.4945 22.3128 29.0078C20.3137 29.5211 18.2007 29.3548 16.3065 28.5351C14.4124 27.7154 12.8447 26.2889 11.8503 24.4803C10.856 22.6717 10.4916 20.5837 10.8145 18.5452C11.1374 16.5066 12.1292 14.6335 13.6337 13.2206C15.1382 11.8077 17.07 10.9355 19.1248 10.7413C21.1796 10.547 23.2406 11.0418 24.9832 12.1477Z" fill="#FFFFFF" fill-rule="evenodd" transform="translate(304.568 0)" />
  </g>
</svg>